<?xml version="1.0" encoding="UTF-8" standalone="no"?>
<!DOCTYPE svg PUBLIC "-//W3C//DTD SVG 1.1//EN" "http://www.w3.org/Graphics/SVG/1.1/DTD/svg11.dtd">
<svg width="100%" height="100%" viewBox="0 0 1080 398" version="1.1" xmlns="http://www.w3.org/2000/svg" xmlns:xlink="http://www.w3.org/1999/xlink" xml:space="preserve" xmlns:serif="http://www.serif.com/" style="fill-rule:evenodd;clip-rule:evenodd;stroke-linejoin:round;stroke-miterlimit:2;">
    <g transform="matrix(1,0,0,1,-4.55602,7.57566)">
        <g transform="matrix(1,0,0,1,12,-0.0134852)">
            <g transform="matrix(0.81116,0,0,0.81116,548.964,-69.7557)">
                <rect x="20.5" y="182.1" width="279.8" height="279.8" style="fill:rgb(0,33,71);fill-rule:nonzero;"/>
            </g>
            <g transform="matrix(0.81116,0,0,0.81116,548.964,-69.7557)">
                <path d="M81.8,414.7C82,424.8 73.9,433.1 63.8,433.2L63.1,433.2C53,433.2 44.7,425 44.7,414.9C44.7,404.8 52.9,396.5 63,396.5C73,396.2 81.4,404.1 81.7,414.1C81.8,414.3 81.8,414.5 81.8,414.7ZM75.9,414.9C75.9,405.2 71.2,398.3 63.2,398.3C54.5,398.3 50.5,406.4 50.5,414.9C50.5,424.7 55.2,431.5 63.2,431.5C71.9,431.4 75.9,423.4 75.9,414.9ZM195.7,414.7C196,425 187.8,433.6 177.5,433.8C167.2,434 158.6,425.9 158.4,415.6C158.1,405.3 166.3,396.7 176.6,396.5L177.1,396.5C187.2,396.3 195.5,404.3 195.7,414.3L195.7,414.7ZM189.8,414.9C189.8,405.2 185.1,398.3 177,398.3C168.3,398.3 164.3,406.4 164.3,414.9C164.3,424.7 169,431.5 177,431.5C185.7,431.4 189.8,423.4 189.8,414.9ZM210,415.1L214.5,415.1C221.2,415.1 222.6,410.8 222.6,406.8C222.7,403.7 220.9,400.7 218.1,399.5C216.4,398.9 214.5,398.7 212.7,398.8L210,398.8L210,415.1ZM218.2,420.8C216.1,417.8 215.3,416.8 212.8,416.8L210.1,416.8L210.1,428.8C210.1,429.8 210.5,430.3 211.6,430.5L215.6,431.4L215.6,432.7L199.7,432.7L199.7,431.4L203.4,430.5C204.5,430.2 204.9,429.8 204.9,428.8L204.9,401C204.9,400 204.5,399.6 203.4,399.3L199.7,398.4L199.7,397.1L215.2,397.1C217.7,397 220.2,397.3 222.6,398.1C226.2,399.5 228.5,402.8 228.6,406.7C228.6,411.1 225.4,414.8 219.9,416L219.9,416.2C221,416.7 221.6,417.4 225.4,422.4L230.2,428.8C230.8,429.7 231.8,430.4 232.9,430.6L236.5,431.4L236.5,432.7L227.9,432.7C226.9,432.7 226.4,432.4 225.5,431.2L218.1,420.8L218.2,420.8ZM148.7,409.2L150.2,409.2L150.2,421L148.7,421L147.8,417.4C147.6,416.3 146.6,415.5 145.5,415.7L137,415.7L137,428.7C137,429.7 137.4,430.2 138.5,430.4L142.6,431.3L142.6,432.6L126.7,432.6L126.7,431.3L130.4,430.4C131.5,430.1 131.9,429.7 131.9,428.7L131.9,400.9C131.9,399.9 131.5,399.5 130.4,399.2L126.7,398.3L126.7,397L153.6,397L153.6,405.9L152,405.9L150.3,400.5C149.9,399.1 149.3,398.6 148.1,398.6L137,398.6L137,414L145.6,414C146.7,414.1 147.7,413.3 147.9,412.2L148.7,409.2ZM239.4,432.6L239.4,431.3L243.1,430.4C244.2,430.1 244.6,429.7 244.6,428.7L244.6,400.9C244.6,399.9 244.2,399.5 243.1,399.2L239.4,398.3L239.4,397L256.1,397C259.7,396.8 263.2,397.5 266.6,398.8C272.8,401.8 276.6,408.1 276.4,414.9C276.9,421.2 273.6,427.2 268.1,430.3C264.5,432 260.5,432.7 256.4,432.5L239.4,432.5L239.4,432.6ZM249.8,398.8L249.8,429.4C249.8,430.7 250.1,431 251.4,431L255.8,431C259.1,431.3 262.3,430.5 265.2,428.8C268.9,426.1 270.6,421.3 270.6,415.2C270.6,409.1 268.9,403.3 264,400.4C261.2,399.1 258.2,398.6 255.1,398.8L249.8,398.8ZM95.8,431.3L95.8,432.6L83.2,432.6L83.2,431.3L86.3,430.5C87.3,430.3 88.3,429.7 89,428.9L99.8,415.4L89,401C88.4,400.1 87.4,399.4 86.3,399.2L83.3,398.4L83.3,397.1L99,397.1L99,398.4L95.9,398.9C94.7,399.1 95,399.6 95.6,400.4L103.7,411.9L103.9,411.9L112.1,400.4C112.7,399.6 112.9,399.3 111.8,399L108.7,398.2L108.7,396.9L121,396.9L121,398.2L117.8,399C116.8,399.2 115.8,399.8 115.1,400.6L104.8,413.5L116.2,428.6C116.8,429.5 117.8,430.1 118.9,430.4L121.9,431.2L121.9,432.5L106.3,432.5L106.3,431.2L109.7,430.5C110.9,430.3 110.7,429.9 110.1,429.1L101.1,416.9L92.3,429.1C91.7,429.9 91.5,430.2 92.6,430.5L95.8,431.3ZM58.4,380.4C57.2,381.5 55.5,382.1 53.9,382C52.2,382.1 50.6,381.4 49.4,380.3C48.1,378.7 47.6,376.7 47.9,374.7L47.9,364.8L49.9,364.8L49.9,375.4C49.7,376.7 50.1,378.1 50.9,379.1C51.8,379.9 52.9,380.3 54,380.2C55.1,380.2 56.1,379.9 56.9,379.2C58.1,378 58,376.8 58,373.8L58,365L60,365L60,373.4C59.9,376.4 60,378.7 58.4,380.4ZM76.2,381.7L68.1,367.9L68.1,381.7L66.2,381.7L66.2,364.9L68.3,364.9L76.4,378.8L76.4,364.9L78.3,364.9L78.3,381.7L76.2,381.7ZM85.3,381.7L85.3,364.9L87.3,364.9L87.3,381.7L85.3,381.7ZM100,381.7L97.7,381.7L91.9,364.9L94,364.9L98.9,379.8L103.9,364.9L105.9,364.9L100,381.7ZM110.4,381.7L110.4,364.9L119.6,364.9L119.6,366.6L112.4,366.6L112.4,372.1L119.1,372.1L119.1,373.7L112.4,373.7L112.4,379.9L119.8,379.9L119.8,381.6L110.4,381.6L110.4,381.7ZM132.6,367.4C131.6,366.6 130.3,366.3 129,366.5L127.1,366.5L127.1,372.8L127.8,372.8C129.4,373.1 131.1,372.7 132.5,371.8C133.6,370.5 133.6,368.6 132.6,367.4ZM134.4,381.7L132.5,377.3C131.3,374.6 130.8,374.3 128.3,374.3L127.1,374.3L127.1,381.6L125.1,381.6L125.1,364.8L128.7,364.8C131,364.8 132.7,364.8 134.1,366.1C135,367 135.4,368.2 135.4,369.5C135.5,370.6 135.1,371.6 134.4,372.4C133.7,373.1 132.7,373.6 131.7,373.7C132.2,373.8 132.7,374 133.1,374.4C133.6,375.1 134.1,375.8 134.4,376.7L136.6,381.7L134.4,381.7ZM156.2,381.7L156.2,364.9L158.2,364.9L158.2,381.7L156.2,381.7ZM169.8,366.6L169.8,381.7L167.8,381.7L167.8,366.6L162.8,366.6L162.8,364.9L174.8,364.9L174.8,366.6L169.8,366.6ZM184.5,375.1L184.5,381.7L182.5,381.7L182.5,375.1L177.1,364.9L179.4,364.9L183.6,372.8L187.6,364.9L189.8,364.9L184.5,375.1ZM208.7,366.3C205.4,366.3 203.3,369 203.3,373.3C203.3,377.6 205.7,380.3 208.8,380.3C212,380.3 214.2,377.3 214.2,373.1C214.2,368.9 212,366.3 208.7,366.3ZM208.7,382C204.3,381.8 200.9,378.2 201.1,373.8L201.1,373.3C201.1,368.1 204.2,364.5 208.8,364.5C213.4,364.5 216.3,368.1 216.3,373.1C216.3,378.1 213.2,381.9 208.8,381.9L208.7,381.9L208.7,382ZM223.9,366.6L223.9,372.1L230.4,372.1L230.4,373.7L223.9,373.7L223.9,381.8L221.9,381.8L221.9,364.9L230.8,364.9L230.8,366.6L223.9,366.6ZM140.6,369C140.7,366.5 142.8,364.5 145.3,364.6L145.7,364.6C147.4,364.5 149.1,365.1 150.4,366.3L149.4,367.5C148.4,366.7 147.1,366.2 145.8,366.2C143.6,366.2 142.4,367.3 142.4,368.9C142.4,369.6 142.7,370.2 143.2,370.6C143.9,371.1 144.7,371.6 145.5,371.9C146.9,372.4 148.1,373.1 149.2,374.1C150,374.9 150.5,376 150.5,377.1C150.5,379.8 148.4,382 145.7,382.1L145.1,382.1C143.3,382.1 141.5,381.5 140.1,380.3L141,378.9C142.2,379.7 143.6,380.2 145.1,380.4C147.6,380.4 148.6,379 148.6,377.4C148.6,376.7 148.3,376 147.7,375.5C146.8,374.7 145.7,374.1 144.6,373.7C143.4,373.3 142.4,372.6 141.5,371.8C140.9,371 140.6,370 140.6,369Z" style="fill:white;fill-rule:nonzero;"/>
            </g>
            <g transform="matrix(0.81116,0,0,0.81116,548.964,-69.7557)">
                <path d="M217.9,251C218.1,249.1 217.2,247.3 215.6,246.3C214.4,245.7 213,245.5 211.7,245.5L200,245.5L200,269.3L212.8,269.3C215.8,269.3 217.5,270 217.7,272.6L218,272.6L217.9,251ZM219.6,251C219.4,249.1 220.3,247.3 221.9,246.3C223.1,245.7 224.5,245.5 225.8,245.5L237.7,245.5L237.7,269.3L224.8,269.3C221.8,269.3 220.1,270 220,272.6L219.7,272.6L219.7,251L219.6,251Z" style="fill:white;fill-rule:nonzero;"/>
            </g>
            <g transform="matrix(0.81116,0,0,0.81116,548.964,-69.7557)">
                <path d="M240.1,247.3L240.1,272.4L221.9,272.4L221.7,272.9C221.4,273.7 220.8,274.4 218.8,274.4C216.8,274.4 216.1,273.6 215.9,272.9L215.7,272.4L197.5,272.4L197.5,247.3L195.9,247.3L195.9,248.1L194.3,247.6C194.1,247 193.5,246.5 192.9,246.5C192.1,246.5 191.4,247.2 191.4,248C191.4,248.8 192.1,249.5 192.9,249.5C193.2,249.5 193.6,249.4 193.9,249.2L195.9,249.8L195.9,251.8L194.3,251.5C194,250.7 193.1,250.4 192.3,250.7C191.5,251 191.2,251.9 191.5,252.7C191.7,253.2 192.3,253.6 192.9,253.6C193.3,253.6 193.7,253.4 194,253.1L195.9,253.4L195.9,255.5L194.3,255.5C194.1,255 193.6,254.7 193,254.7C192.2,254.7 191.5,255.3 191.5,256.2C191.5,257 192.1,257.7 193,257.7C193.5,257.7 194,257.5 194.3,257.1L196,257.1L196,259.4L194.4,259.4C194.1,259 193.6,258.8 193.2,258.8C192.4,258.8 191.7,259.5 191.7,260.3C191.7,261.1 192.4,261.8 193.2,261.8C193.7,261.8 194.2,261.5 194.5,261.1L196.1,261.1L196.1,263.1L194.3,263.4C194,263.1 193.6,262.9 193.2,262.9C192.4,262.8 191.6,263.4 191.5,264.2C191.4,265 192,265.8 192.8,265.9L193.2,265.9C193.8,265.9 194.3,265.6 194.6,265L196.1,264.7L196.1,266.7L194.1,267.3C193.8,267.1 193.5,267 193.2,267C192.4,267 191.7,267.7 191.7,268.5C191.7,269.3 192.4,270 193.2,270C193.9,270 194.4,269.5 194.6,268.9L196.1,268.4L196.1,270.4L193.9,271.3C193.7,271.1 193.4,271.1 193.1,271.1C192.3,271.1 191.6,271.8 191.6,272.6C191.6,273.4 192.3,274.1 193.1,274.1C193.8,274.1 194.4,273.6 194.6,272.9L196.1,272.2L196.1,274L214.9,274C215.7,275.5 217.3,276.3 219,276.2C220.6,276.4 222.2,275.6 223.1,274.2L241.9,274.2L241.9,247.3L240.1,247.3Z" style="fill:white;fill-rule:nonzero;"/>
            </g>
            <g transform="matrix(0.81116,0,0,0.81116,548.964,-69.7557)">
                <path d="M206.4,238.9C202.6,238.9 199.5,239.5 199.5,240.2C199.5,240.9 202.6,241.5 206.4,241.5C210.2,241.5 213.3,240.9 213.3,240.2C213.3,239.5 210.2,238.9 206.4,238.9ZM215.9,230.7L211.9,233.4L211.9,233.7L212.8,234.1C213,234.1 213,234.3 212.8,234.4L210.3,236.5L210.1,236.5L208.3,233.8L208.3,233.4L209.5,233.2L209.5,233.1L206.4,228.8L206,228.8L202.9,233.1L202.9,233.4L204.1,233.6C204.3,233.6 204.3,233.8 204.1,234L202.3,236.7L202.2,236.7L199.9,234.6L199.9,234.3L200.8,233.9L200.8,233.6L196.7,230.9L196.4,230.9L198.8,238.3C201.2,237.6 203.7,237.3 206.2,237.4C208.7,237.3 211.2,237.6 213.6,238.3L216,230.9L215.9,230.7Z" style="fill:white;fill-rule:nonzero;"/>
            </g>
            <g transform="matrix(0.81116,0,0,0.81116,548.964,-69.7557)">
                <path d="M218.7,288.8C214.9,288.8 211.8,289.4 211.8,290.1C211.8,290.8 214.9,291.4 218.7,291.4C222.5,291.4 225.6,290.8 225.6,290.1C225.6,289.3 222.6,288.8 218.7,288.8ZM228.2,280.5L224.2,283.2L224.2,283.5L225.1,283.9C225.3,283.9 225.3,284.1 225.1,284.2L222.6,286.3L222.4,286.3L220.6,283.6C220.5,283.4 220.6,283.3 220.6,283.2L221.8,283L221.8,282.7L218.7,278.4L218.2,278.4L215.1,282.7L215.1,283L216.3,283.2C216.5,283.2 216.5,283.4 216.3,283.6L214.5,286.3L214.3,286.3L212.3,284.3L212.3,284L213.2,283.6L213.2,283.3L209.1,280.6L208.8,280.6L211.2,288.1C216,286.8 221.1,286.8 226,288.1L228.4,280.6L228.2,280.5Z" style="fill:white;fill-rule:nonzero;"/>
            </g>
            <g transform="matrix(0.81116,0,0,0.81116,548.964,-69.7557)">
                <path d="M231.1,238.9C227.3,238.9 224.2,239.5 224.2,240.2C224.2,240.9 227.3,241.5 231.1,241.5C234.9,241.5 238,240.9 238,240.2C238,239.5 234.9,238.9 231.1,238.9ZM240.6,230.7L236.6,233.4L236.6,233.7L237.5,234.1C237.7,234.1 237.7,234.3 237.5,234.4L235,236.5L234.8,236.5L233,233.8C232.9,233.6 233,233.5 233,233.4L234.2,233.2L234.2,233.1L231.1,228.8L230.6,228.8L227.7,233.1L227.7,233.4L228.9,233.6C229.1,233.6 229.1,233.8 228.9,234L227.2,236.7L227,236.7L224.7,234.6L224.7,234.3L225.6,233.9L225.6,233.4L221.5,230.7L221,230.7L223.4,238.1C228.2,236.8 233.3,236.8 238.2,238.1L240.6,230.7Z" style="fill:white;fill-rule:nonzero;"/>
            </g>
            <g transform="matrix(0.81116,0,0,0.81116,548.964,-69.7557)">
                <path d="M203,249.4C203.6,249.4 204.1,249.5 204.5,249.9C204.8,250.2 205,250.6 205,251C205,252.3 204,252.9 202.8,252.9L201.5,252.9L201.5,252.7C201.9,252.7 201.9,252.7 201.9,252.1L201.9,250.4C201.9,249.8 201.9,249.8 201.5,249.8L201.5,249.6L203,249.6L203,249.4ZM202.8,252C202.8,252.5 202.8,252.6 203.1,252.6C203.4,252.6 204,252.1 204,251.2C204,250.3 203.4,249.7 203,249.7L202.8,249.7L202.8,252ZM209,251C209.1,251.9 208.3,252.8 207.4,252.8L207.2,252.8C206.3,252.8 205.5,252.1 205.4,251.2L205.4,251.1C205.4,250.1 206.1,249.3 207.1,249.3L207.2,249.3C208.1,249.3 208.9,250 208.9,250.9C209,250.9 209,251 209,251ZM206.3,251C206.3,251.9 206.6,252.6 207.2,252.6C207.8,252.6 207.9,252.2 207.9,251.2C207.9,250.3 207.5,249.6 207.1,249.6C206.7,249.6 206.5,250 206.5,250.9L206.3,251ZM213.6,249.4L213.6,249.6C213.2,249.6 213.2,249.6 213.2,250.2L213.2,251.9C213.2,252.5 213.2,252.5 213.6,252.5L213.6,252.7L212,252.7L212,252.5C212.4,252.5 212.4,252.5 212.4,251.9L212.4,250L211.4,252.7L211.1,252.7L210.1,250.3L210.1,252.4C210.1,252.6 210.1,252.6 210.6,252.6L210.6,252.8L209.3,252.8L209.3,252.6C209.5,252.6 209.6,252.6 209.7,252.4L209.7,250.5C209.7,249.8 209.7,249.7 209.3,249.7L209.3,249.4L210.5,249.4L211.4,251.5L212.2,249.4L213.6,249.4ZM215.3,252C215.3,252.6 215.3,252.6 215.7,252.6L215.7,252.8L214,252.8L214,252.6C214.3,252.6 214.4,252.6 214.4,252L214.4,250.3C214.4,249.7 214.4,249.7 214,249.7L214,249.4L215.7,249.4L215.7,249.6C215.3,249.6 215.3,249.6 215.3,250.2L215.3,252Z" style="fill:rgb(0,33,71);fill-rule:nonzero;"/>
            </g>
            <g transform="matrix(0.81116,0,0,0.81116,548.964,-69.7557)">
                <path d="M206.9,259.1L206.4,259.1L204.5,256.6L204.5,258.6C204.5,258.8 204.7,258.8 205,258.8L205,259L203.7,259L203.7,258.8C203.9,258.8 204.1,258.8 204.1,258.6L204.1,256C204.1,255.9 203.9,256 203.7,255.8L203.7,255.6L204.9,255.6L206.6,257.8L206.6,256.1C206.6,255.9 206.4,255.9 206.1,255.8L206.1,255.6L207.4,255.6L207.4,255.8C207.2,255.8 207,255.8 207,256.1L207,257.1L206.9,259.1Z" style="fill:rgb(0,33,71);fill-rule:nonzero;"/>
            </g>
            <g transform="matrix(0.81116,0,0,0.81116,548.964,-69.7557)">
                <path d="M209,259.1L208,256.4C207.8,255.9 207.7,255.9 207.4,255.9L207.4,255.7L209.1,255.7L209.1,255.9L208.8,255.9C208.6,255.9 208.6,255.9 208.7,256.1C208.8,256.3 209.2,257.4 209.4,258C209.6,257.5 209.9,256.5 210,256.3C210.1,256.1 210,255.9 209.8,255.9L209.7,255.9L209.7,255.7L211,255.7L211,255.9C210.7,255.9 210.6,255.9 210.4,256.4C210.4,256.4 209.7,258 209.3,259.1L209,259.1ZM211.4,258C211.4,258.3 211.8,258.9 212.3,258.9C212.6,258.9 212.8,258.7 212.8,258.4C212.8,258.1 212.6,257.9 212.3,257.8C211.9,257.6 211.4,257.3 211.4,256.8C211.4,256.2 211.8,255.7 212.7,255.7L213.5,255.7L213.5,256.5L213.3,256.5C213.3,256.2 213,255.8 212.6,255.8C212.4,255.8 212.2,256 212.1,256.2L212.1,256.3C212.1,256.5 212.3,256.7 212.6,256.8C213.1,257 213.5,257.3 213.5,257.9C213.5,258.5 213,259 212.2,259L211.6,259L211.3,258.9L211.1,258L211.4,258Z" style="fill:rgb(0,33,71);fill-rule:nonzero;"/>
            </g>
            <g transform="matrix(0.81116,0,0,0.81116,548.964,-69.7557)">
                <path d="M204.6,264.5C204.6,265.1 204.6,265.1 205,265.1L205,265.3L203.3,265.3L203.3,265.1C203.7,265.1 203.7,265.1 203.7,264.5L203.7,262.8C203.7,262.2 203.7,262.2 203.3,262.2L203.3,262L205,262L205,262.2C204.7,262.2 204.6,262.2 204.6,262.8L204.6,264.5ZM206.6,264.6L206.6,265.1L207,265.1C207.2,265.1 207.4,265.1 207.5,264.9C207.6,264.7 207.7,264.6 207.7,264.4L207.9,264.4C207.9,264.6 207.7,265.1 207.7,265.3L205,265.3L205,265C205.4,265 205.4,265 205.4,264.4L205.4,262.8C205.4,262.2 205.4,262.2 205,262.2L205,262L206.7,262L206.7,262.2C206.3,262.2 206.3,262.2 206.3,262.8L206.6,264.6ZM209.5,264.6L209.5,265.1L209.9,265.1C210.1,265.1 210.3,265.1 210.4,264.9C210.5,264.7 210.6,264.6 210.6,264.4L210.8,264.4C210.8,264.7 210.7,265 210.6,265.3L208,265.3L208,265C208.4,265 208.4,265 208.4,264.4L208.4,262.8C208.4,262.2 208.4,262.2 208,262.2L208,262L209.7,262L209.7,262.2C209.3,262.2 209.3,262.2 209.3,262.8L209.5,264.6ZM212.1,265.5C211.7,264.6 211.2,263.3 211.1,262.8C211,262.3 210.8,262.3 210.6,262.3L210.6,262.1L212.3,262.1L212.3,262.3L212,262.3C211.8,262.3 211.8,262.3 212,262.5C212.2,262.7 212.5,263.8 212.7,264.3C212.7,263.9 213.2,262.9 213.3,262.6C213.4,262.4 213.3,262.2 213.1,262.2L212.9,262.2L212.9,262L214.2,262L214.2,262.2C213.9,262.2 213.9,262.2 213.6,262.7C213.3,263.2 212.9,264.3 212.6,265.4L212.1,265.5Z" style="fill:rgb(0,33,71);fill-rule:nonzero;"/>
            </g>
            <g transform="matrix(0.81116,0,0,0.81116,548.964,-69.7557)">
                <path d="M226.1,249.4L226.1,249.6C225.7,249.6 225.7,249.6 225.7,250.2L225.7,251.9C225.7,252.5 225.7,252.5 226.1,252.5L226.1,252.7L224.5,252.7L224.5,252.5C224.9,252.5 224.9,252.5 224.9,251.9L224.9,250L223.9,252.7L223.6,252.7L222.6,250.3L222.6,252.4C222.6,252.6 222.6,252.6 223.1,252.6L223.1,252.8L221.8,252.8L221.8,252.6C222,252.6 222.1,252.6 222.2,252.4L222.2,250.5C222.2,249.8 222.2,249.7 221.8,249.7L221.8,249.4L223,249.4L223.9,251.5L225,249.4L226.1,249.4ZM227.9,252C227.9,252.6 227.9,252.6 228.3,252.6L228.3,252.8L226.6,252.8L226.6,252.6C227,252.6 227,252.6 227,252L227,250.3C227,249.7 227,249.7 226.6,249.7L226.6,249.4L228.3,249.4L228.3,249.6C228,249.6 227.9,249.6 227.9,250.2L227.9,252ZM231.7,252.8L231.3,252.8L229.4,250.3L229.4,252.3C229.4,252.5 229.6,252.5 229.9,252.5L229.9,252.7L228.6,252.7L228.6,252.5C228.8,252.5 228.9,252.5 229,252.3L229,249.7C228.9,249.6 228.7,249.5 228.6,249.5L228.6,249.3L229.8,249.3L231.5,251.5L231.5,249.8C231.5,249.6 231.3,249.5 231,249.5L231,249.3L232.3,249.3L232.3,249.5C232,249.5 231.9,249.5 231.9,249.8L231.9,250.8L231.7,252.8ZM233.9,252.5L234.1,252.5C234.3,252.5 234.3,252.5 234.1,252.2L233.9,251.7L233,251.7L232.8,252.2C232.8,252.4 232.8,252.5 233,252.5L233.2,252.5L233.2,252.7L232,252.7L232,252.5C232.3,252.5 232.3,252.5 232.5,252L233.5,249.3L233.9,249.3L234.2,250.3L234.9,252.1C235.1,252.6 235.2,252.6 235.4,252.6L235.4,252.8L233.7,252.8L233.9,252.5ZM233.3,251.4L234,251.4L233.7,250.4L233.3,251.4Z" style="fill:rgb(0,33,71);fill-rule:nonzero;"/>
            </g>
            <g transform="matrix(0.81116,0,0,0.81116,548.964,-69.7557)">
                <path d="M226.1,258.2C226.1,258.8 226.1,258.8 226.6,258.8L226.6,259L224.8,259L224.8,258.8C225.2,258.8 225.3,258.8 225.3,258.2L225.3,255.9C225,255.9 224.8,255.9 224.7,256.1C224.6,256.3 224.7,256.3 224.5,256.6L224.3,256.6L224.3,255.6L227.3,255.6L227.3,256.6L227.1,256.6C227.1,256.4 227,256.2 226.9,256.1C226.8,256 226.6,255.9 226.4,256L226.1,258.2ZM228.8,258.2C228.8,258.8 228.8,258.8 229.2,258.8L229.2,259L227.6,259L227.6,258.8C228,258.8 228,258.8 228,258.2L228,256.5C228,255.9 228,255.9 227.6,255.9L227.6,255.7L229.3,255.7L229.3,255.9C228.9,255.9 228.9,255.9 228.9,256.5L228.8,258.2ZM233.2,257.4C233.3,258.3 232.5,259.2 231.6,259.2L231.4,259.2C230.5,259.2 229.7,258.5 229.7,257.6L229.7,257.5C229.7,256.5 230.4,255.7 231.4,255.6L231.5,255.6C232.5,255.7 233.2,256.4 233.2,257.4ZM230.5,257.4C230.5,258.3 230.8,259 231.4,259C231.9,259 232.1,258.6 232.1,257.6C232.1,256.7 231.7,256 231.3,256C230.9,256 230.7,256.2 230.7,257.2L230.5,257.4Z" style="fill:rgb(0,33,71);fill-rule:nonzero;"/>
            </g>
            <g transform="matrix(0.81116,0,0,0.81116,548.964,-69.7557)">
                <path d="M227.7,261.9L227.7,262.1C227.3,262.1 227.3,262.1 227.3,262.7L227.3,264.4C227.3,265 227.3,265 227.7,265L227.7,265.2L226.1,265.2L226.1,265C226.5,265 226.5,265 226.5,264.4L226.5,262.5L225.5,265.2L225.2,265.2L224.2,262.7L224.2,264.8C224.2,265 224.2,265 224.7,265.1L224.7,265.3L223.4,265.3L223.4,265.1C223.6,265.1 223.7,265.1 223.8,264.8C223.9,264.5 223.8,264.3 223.8,263.9L223.8,262.9C223.8,262.2 223.8,262.2 223.4,262.1L223.4,261.9L224.6,261.9L225.5,264L226.3,261.9L227.7,261.9ZM228.5,262.8C228.5,262.2 228.5,262.2 228.1,262.2L228.1,262L230.6,262L230.6,262.9L230.4,262.9C230.4,262.7 230.3,262.5 230.2,262.4L229.7,262.4C229.5,262.4 229.5,262.4 229.5,262.6L229.5,263.6L229.8,263.6C230.3,263.6 230.3,263.6 230.3,263.2L230.4,263.2L230.4,264.4L230.2,264.4C230.2,263.9 230.2,263.9 229.7,263.9L229.4,263.9L229.4,265.2L229.8,265.2C230,265.2 230.2,265.2 230.3,265C230.4,264.8 230.5,264.7 230.6,264.5L230.8,264.5C230.8,264.8 230.7,265.1 230.6,265.4L227.9,265.4L227.9,265.2C228.3,265.2 228.3,265.2 228.3,264.6L228.5,262.8ZM232.7,265.1L232.8,265.1C233,265.1 233,265.1 232.8,264.9L232.6,264.4L231.7,264.4L231.7,264.9C231.7,265.1 231.7,265.2 231.9,265.2L232,265.2L232,265.4L230.8,265.4L230.8,265.2C231.1,265.2 231.1,265.2 231.3,264.7L232.3,262L232.6,262L233,263C233.2,263.6 233.5,264.2 233.6,264.8C233.7,265.4 233.9,265.3 234.1,265.3L234.1,265.5L232.5,265.5L232.7,265.1ZM232,264L232.7,264L232.4,263L232,264Z" style="fill:rgb(0,33,71);fill-rule:nonzero;"/>
            </g>
            <g transform="matrix(0.81116,0,0,0.81116,548.964,-69.7557)">
                <path d="M214,307.5C214,308.3 213.4,308.9 212.6,308.9C211.9,309 211.1,308.6 211,307.8C210.9,307.1 211.3,306.3 212.1,306.2L212.6,306.2C213.4,306.2 214,306.8 214,307.5ZM227.9,309.8C227.9,310.6 227.3,311.2 226.5,311.2C225.7,311.2 225.1,310.6 225.1,309.8C225.1,309 225.7,308.4 226.5,308.4C227.3,308.4 227.9,309 227.9,309.8ZM220.1,210.7C220.1,211.5 219.5,212.1 218.8,212.1C218,212.1 217.4,211.5 217.4,210.8C217.4,210 218,209.4 218.7,209.4C219.4,209.3 220,209.9 220.1,210.7ZM252.7,223.5C252.7,224.3 252,224.8 251.3,224.8C250.6,224.8 250,224.1 250,223.4C250,222.7 250.7,222.1 251.4,222.1C252.1,222.1 252.7,222.8 252.7,223.5ZM183.9,282.4C184.4,283.1 184.7,284 184.7,284.8C184.7,285.8 184.4,286.5 182.7,287.7L177.8,291.3L176.9,290L182,286.3C182.9,285.7 183.3,285.2 183.3,284.6C183.3,284.1 183.1,283.6 182.8,283.2C182.4,282.6 181.8,282.3 181.1,282.3C180.6,282.3 180.1,282.6 179.1,283.3L174.4,286.4L173.5,285.1L177.9,282.1C178.8,281.3 179.9,280.8 181,280.6C182.2,280.7 183.3,281.4 183.9,282.4ZM168.1,272.7L177.5,269.4L178,270.8L172.6,277.4L179.4,274.7L179.9,276.1L170.6,279.7L170.1,278.3L175.5,271.7L168.6,274.1L168.1,272.7ZM166.7,265.2L176.6,263.7L176.8,265.3L166.9,266.8L166.7,265.2ZM166.4,253.3L166.4,251.7L176.3,255.7L176.3,257.3L166.2,260.3L166.2,258.6L174.3,256.3L166.4,253.3ZM175.4,231C174,231 173.3,231.8 172.4,233.4L171.2,235.5L180,240.3L180.8,238.9L177.1,236.9L177.3,236.5C177.9,235.4 178.1,235.2 179.7,235.4L182.6,235.6L183.4,234.1L180.1,233.8C179.6,233.7 179,233.7 178.5,233.8C178.3,233.9 178.2,233.9 178,234L178,233.5C178,233.2 178,233 177.9,232.7C177.7,232.1 177.2,231.6 176.7,231.3C176.3,231.2 175.9,231 175.4,231ZM173.6,234.1C174.2,233 174.6,232.6 175.2,232.6C175.5,232.6 175.8,232.7 176,232.8C176.4,233 176.6,233.3 176.8,233.7L176.8,234.2C176.7,234.8 176.5,235.5 176.1,236L175.9,236.4L173.2,234.9L173.6,234.1ZM186.3,217.1L187.6,216.1L193.7,224L192.4,225L186.3,217.1ZM191.8,213.1L198.3,209.7L198.9,210.9L196.4,212.2L200.4,219.7L199,220.5L195,212.9L192.5,214.2L191.8,213.1ZM207.9,206.7L209.6,206.3L208.2,213L209.3,216.8L207.8,217.1L206.8,213.3L202,208.4L203.6,207.9L207,211.5L207.9,206.7ZM238.4,220.3L243.3,211.7L248.1,214.5L247.4,215.7L244,213.7L242.6,216.1L245.8,218L245.1,219.2L241.9,217.3L239.6,221.2L238.4,220.3ZM263.9,242.5L267.5,238.2L268.1,239.9L265.4,243L269.4,243.9L269.9,245.5L264.5,244.2L260.6,248.9L260.1,247.2L263.1,243.8L258.7,242.8L258.2,241.1L263.9,242.5ZM261.1,252.3L271,251.5L271.5,256.9L270.1,256.9L269.8,253L267.1,253.2L267.4,256.9L266,256.9L265.7,253.2L261.2,253.5L261.1,252.3ZM265.3,261.2C264.2,261.2 263.2,261.5 262.3,262.1C261.2,262.9 260.5,264.3 260.5,265.7C260.7,268.5 263.1,270.6 265.9,270.4L266.1,270.4C267.2,270.4 268.2,270.1 269.1,269.5C270.2,268.7 270.9,267.3 270.9,265.9C270.7,263.1 268.3,261 265.5,261.2L265.3,261.2ZM266.1,268.8C264.2,268.8 261.9,267.8 261.9,265.8C261.9,264.9 262.3,264 263,263.5C263.7,263 264.5,262.8 265.3,262.8C266.7,262.7 268.1,263.3 269,264.4C269.9,265.6 269.6,267.3 268.4,268.2C268.4,268.2 268.3,268.2 268.3,268.3C267.6,268.7 266.9,268.9 266.1,268.9L266.1,268.8ZM259.7,228C258.6,228 257.5,228.4 256.6,229C255,229.9 254,231.4 253.9,233.2C253.9,234 254.1,234.9 254.6,235.6C255.4,236.9 256.8,237.7 258.3,237.7C259.4,237.7 260.5,237.3 261.4,236.7C263,235.9 264,234.3 264.1,232.5C264.1,231.7 263.8,230.8 263.4,230.1C262.6,228.8 261.2,228 259.7,228ZM258.1,236.1C257.2,236.1 256.3,235.7 255.8,234.9C255.5,234.5 255.4,234 255.4,233.5C255.5,232.2 256.3,231 257.4,230.4C258.1,229.9 259,229.6 259.9,229.6C260.8,229.6 261.7,230 262.2,230.8C262.5,231.3 262.7,231.8 262.7,232.3C262.6,233.6 261.9,234.7 260.7,235.3C259.9,235.8 259,236.1 258.1,236.1ZM232.5,207.5C230.2,207.6 228.3,209.2 227.9,211.4C227.7,211.9 227.6,212.5 227.6,213C227.6,213.9 227.8,214.8 228.2,215.6C229,217 230.5,217.9 232.1,217.8C232.8,217.8 233.5,217.6 234.2,217.3C235.9,216.2 236.9,214.3 236.9,212.2C236.9,211.3 236.7,210.5 236.3,209.8C235.5,208.3 234,207.5 232.5,207.5ZM232,216.4C231,216.4 230.1,215.8 229.7,215C229.4,214.5 229.3,213.8 229.3,213.2C229.3,211.4 230.5,208.9 232.6,208.9C234.2,209 235.4,210.3 235.3,211.9L235.3,212.1C235.3,213.5 234.3,216.4 232,216.4ZM177.3,243.6L178.6,244L177.1,249.4L167.4,246.7L169,241.2L170.3,241.5L169.1,245.5L171.8,246.2L172.8,242.6L174.1,243L173.1,246.7L176.1,247.5L177.3,243.6ZM179.8,222.8C180.4,221.9 181.4,221.4 182.5,221.3L182.7,222.6C182,222.7 181.3,223 180.8,223.6C180.5,223.9 180.3,224.4 180.3,224.9C180.3,225.2 180.4,225.5 180.7,225.7C181.4,226.3 182.6,225.7 183.4,225.4C184.1,225.1 184.8,224.9 185.6,224.8C186.3,224.8 186.9,225 187.4,225.5C188,226 188.4,226.8 188.4,227.6C188.4,228.5 188,229.3 187.4,229.9C186.6,230.8 185.6,231.3 184.4,231.5L184.1,230.2C185,230.1 185.7,229.7 186.3,229C186.6,228.7 186.8,228.2 186.8,227.8C186.8,227.4 186.6,227 186.3,226.8C186.1,226.6 185.8,226.5 185.4,226.5C184.7,226.6 184,226.8 183.3,227.1C182.2,227.9 180.8,227.9 179.7,227.1C179.1,226.6 178.8,225.9 178.8,225.2C178.8,224.3 179.1,223.4 179.8,222.8ZM258.4,274.1L262.2,275.8L262,276.2C261.5,277.4 261.3,277.5 259.7,277.6L256.8,277.6L256.1,279.1L259.4,279.1C259.9,279.1 260.5,279.1 261,278.9L261.4,278.7L261.4,278.9C261.4,279.3 261.5,279.6 261.6,279.9C262.1,280.9 263.2,281.5 264.3,281.5C265.9,281.5 266.5,280.5 267.3,278.8L268.2,276.7L259.1,272.6L258.4,274.1ZM264.3,280C263.7,280 263.1,279.6 262.8,279L262.8,278.4C262.9,277.8 263,277.2 263.3,276.7L263.5,276.3L266.4,277.6L266.1,278.4C265.3,279.6 265.1,280 264.3,280ZM253.2,283.5C252.1,284.6 251.5,286 251.3,287.5C251.4,289 252.1,290.5 253.3,291.4C254.2,292.1 255.3,292.5 256.5,292.6C257.9,292.6 259,292.2 260.7,289.9L262.3,287.9L254.5,281.7L253.2,283.5ZM256.7,291C255.9,291 255,290.6 254.4,290.1C253.5,289.4 252.9,288.4 252.8,287.2C252.9,286.2 253.3,285.2 254,284.5L254.6,283.7L260.3,288.2L259.9,288.7C258.8,290.3 258.1,291 256.7,291Z" style="fill:white;fill-rule:nonzero;"/>
            </g>
            <g transform="matrix(0.81116,0,0,0.81116,548.964,-69.7557)">
                <path d="M275.9,258.3C275.9,226.8 250.4,201.2 218.8,201.1C187.3,201.1 161.7,226.6 161.6,258.2C161.6,277.1 170.9,294.8 186.5,305.4C188.1,311.3 193.4,315.3 199.5,315.3C201.2,315.3 202.8,315 204.4,314.4C206.5,315.1 208.6,315.7 210.8,316.1C210.2,317.8 209.4,319.4 208.5,320.9L209.7,322.1C210,321.9 210.4,321.8 210.7,321.8C211.9,321.9 212.7,323 212.6,324.2C212.5,325.2 211.7,326 210.7,326.1C209.7,326.1 208.8,325.5 208.3,324.7C208.1,325.4 208,326.2 208,326.9C208,331 212.5,335.7 218.8,337.7C225,335.8 229.6,331.1 229.6,326.9C229.6,326.1 229.5,325.4 229.3,324.7C228.8,325.5 227.9,326 226.9,326.1C225.7,326 224.9,324.9 225,323.7C225.1,322.7 225.9,321.9 226.9,321.8C227.3,321.8 227.7,321.9 228,322.1L229.2,321C228.5,319.6 228,318.1 227.6,316.6C237.5,315.4 246.6,310.9 253.4,303.6C267.6,292.9 275.9,276.1 275.9,258.3ZM199.6,313.8C193.1,313.8 187.8,308.5 187.8,302C187.8,300 188.3,298.1 189.2,296.4L191.1,298.1C190.5,299.3 190.2,300.7 190.2,302.1C190.2,305.7 192.2,308.9 195.3,310.5C197.4,311.7 199.5,312.7 201.8,313.6C201.1,313.7 200.3,313.8 199.6,313.8ZM218.8,296.6C216.4,296.6 213.9,296.4 211.6,295.9C209.3,291.4 204.7,288.6 199.6,288.6C198.4,288.6 197.2,288.8 196,289.1C179,276.5 175.5,252.5 188.1,235.5C200.7,218.5 224.7,215 241.7,227.6C258.7,240.2 262.2,264.2 249.6,281.2C242.3,290.9 230.9,296.6 218.8,296.6ZM227.3,297.3C226.1,299.2 225.4,301.3 225.3,303.5C221.9,302.6 218.7,301.5 215.5,300C216.2,298.9 217.5,298.2 218.8,298.2C221.6,298.2 224.5,297.9 227.3,297.3ZM215.1,298C214.6,298.4 214.3,298.8 213.9,299.3C212.5,298.6 210.6,297.7 209.5,297C211.4,297.5 213.3,297.8 215.1,298ZM199.6,290.2C203.5,290.2 207.2,292.2 209.4,295.4C207.5,294.9 205.7,294.3 203.9,293.5C202.6,292.9 201.3,292.6 199.9,292.6C196.9,292.6 194,294 192.3,296.5C191.5,296.1 190.8,295.7 190.1,295.2C192.1,292.1 195.7,290.2 199.6,290.2ZM226.7,320.2C224.6,320 222.8,321.6 222.6,323.7C222.4,325.8 224,327.6 226.1,327.8L227.6,327.8C227.1,331 223.5,334.5 218.7,336.1C214,334.5 210.3,331 209.8,327.8L210.7,327.8C212.7,327.9 214.4,326.4 214.5,324.4L214.5,324.1C214.5,322 212.8,320.3 210.8,320.3C211.5,319.1 212,317.8 212.5,316.5C215,316.9 217.6,317.2 220.1,317.2C222,317.2 223.9,317.1 225.8,316.9C226.1,318.1 226.4,319.2 226.8,320.3L226.7,320.2ZM220.1,315.6C211.8,315.4 203.6,313.2 196.3,309.1C193.7,307.7 192,305 192,302C192,301 192.2,300.1 192.5,299.1C194.6,300.9 196.8,302.5 199.1,303.9C199.4,304.1 199.7,304.2 200.1,304.2C201.1,304.2 202,303.4 202,302.3C202,301.5 201.6,300.9 200.9,300.6C199.6,300 196.7,298.8 193.6,297.2C195.1,295.3 197.3,294.1 199.8,294.1C200.9,294.1 202.1,294.3 203.1,294.8L205.2,296C211.9,300.1 229.1,310.5 249.8,304.8C241.5,312.2 230.9,316 220.1,315.6ZM252.2,302.5C244.1,305.4 235.3,305.9 226.9,303.9C227.1,300.6 228.5,297.1 230.6,296.4C251.7,289.9 263.5,267.5 257,246.4C250.5,225.3 228.1,213.5 207,220C185.9,226.5 174.1,248.9 180.6,270C183,277.8 187.8,284.7 194.2,289.7C191.9,290.7 190,292.3 188.5,294.4C187.8,293.9 187.1,293.4 186.4,292.8L186.1,293.1C186.7,293.8 187.3,294.5 188,295.1C186.8,297.1 186.1,299.5 186.1,301.9L186.1,303.1C161.4,285.1 155.9,250.4 173.9,225.7C191.9,201 226.6,195.5 251.3,213.5C276,231.5 281.5,266.2 263.5,290.9C260.3,295.3 256.5,299.2 252.2,302.5Z" style="fill:white;fill-rule:nonzero;"/>
            </g>
            <g transform="matrix(0.81116,0,0,0.81116,548.964,-69.7557)">
                <rect x="340.7" y="182.1" width="279.8" height="279.8" style="fill:white;fill-rule:nonzero;"/>
            </g>
            <g transform="matrix(0.81116,0,0,0.81116,548.964,-69.7557)">
                <path d="M613.7,188.9L613.7,455.3L347.4,455.3L347.4,188.9L613.7,188.9M620.5,182.1L340.7,182.1L340.7,461.9L620.5,461.9L620.5,182.1Z" style="fill-rule:nonzero;"/>
            </g>
            <g transform="matrix(0.81116,0,0,0.81116,548.964,-69.7557)">
                <path d="M516.4,291.8L596,337.7L596,316.3L516.4,270.4L516.4,291.8ZM529.7,268.8L596,307L596,285.6L529.7,247.3L529.7,268.8ZM543,245.7L596,276.3L596,255L543,224.4L543,245.7ZM556.2,201.3L556.2,222.7L596,245.7L596,224.3C596.1,224.3 556.2,201.3 556.2,201.3Z" style="fill:rgb(0,33,71);fill-rule:nonzero;"/>
            </g>
            <g transform="matrix(0.81116,0,0,0.81116,548.964,-69.7557)">
                <path d="M368.2,328.2L370,328.2C370.3,329.1 370.6,330 371,330.9C371.6,332.5 372.4,334 373.3,335.4C374.7,336.6 376.6,337.3 378.5,337.2C381.9,337.6 384.9,335.2 385.3,331.8L385.3,330.7C385.3,326.8 382.4,325.1 379.2,323.5L377.7,322.8C372.3,320.1 369.1,317.7 369.1,312.3C369.1,306.1 374.7,302.4 382.2,302.4C384,302.4 385.7,302.6 387.4,302.9L389.8,303.2L390.1,311.3L388.5,311.3C388.2,310.4 387.9,309.5 387.6,308.6C387.1,307.3 386.5,306.1 385.7,305C384.4,304 382.8,303.5 381.2,303.5C378.2,303.2 375.6,305.3 375.2,308.2L375.2,309C375.2,312.6 377,314.6 381.8,316.9L384.1,318.1C386.2,319.1 388.1,320.4 389.7,322.1C391.1,323.8 391.9,325.9 391.8,328.2C391.8,334.7 386.3,338.6 378.3,338.6C376.2,338.6 374.1,338.3 372.1,337.9L369.2,337.2L368.2,328.2ZM413.2,338.7C411.1,338.8 409.2,337.7 408.2,335.8L406.4,336.7C404.8,337.7 402.9,338.3 401,338.4C399.4,338.5 397.8,338 396.6,336.9C395.5,336 394.9,334.6 395,333.2C395,331.3 396.1,329.5 397.9,328.7C400.7,327.5 403.7,326.5 406.7,325.8L407.9,325.5L407.9,320.5C407.9,317.5 406.2,316.2 403.5,316.2C402.6,316.2 401.7,316.4 400.8,316.8L400.5,319.7L396.3,321C395.8,320.9 395.4,320.4 395.4,319.9C395.4,319.2 395.8,318.6 396.9,317.7C399.6,315.4 402.9,313.9 406.5,313.4C408.7,313.2 410.8,313.8 412.6,315C413.7,316.1 414.3,317.7 414.2,319.3L413.8,333.4L418.1,336.1L413.2,338.7ZM404.3,327.9C402,328.6 401,329.5 401,331.7C400.7,333.6 402.1,335.4 404,335.7L404.5,335.7C405.7,335.8 406.8,335.3 407.6,334.4L407.6,326.8L404.3,327.9ZM421.9,301.9C422.7,301.9 423.5,302.2 424.1,302.8C424.7,303.4 425,304.2 425,305C425,305.8 424.7,306.6 424.1,307.2C423.5,307.8 422.7,308.1 421.9,308.1C420.2,308.1 418.8,306.7 418.8,305C418.8,303.3 420.2,301.9 421.9,301.9ZM420.1,316.4L420.1,316.2L429.9,313.1L430.2,313.1L430.2,335L433.1,337.7L433.1,337.9L420.5,337.9L420.5,337.7L423.6,335L423.6,318.6L420.1,316.4ZM431.5,301.9C433.2,301.9 434.6,303.3 434.6,305C434.6,306.7 433.2,308.1 431.5,308.1C429.8,308.1 428.4,306.7 428.4,305C428.4,303.3 429.8,301.9 431.5,301.9ZM459.3,304.7L459.3,334.6L463,335.6L463,335.8L453.3,338.8L453,338.8L452.8,335.6L451,336.5C449.2,337.5 447.2,338.1 445.2,338.2C439.8,338.2 435.2,334.1 435.2,326.8C435.2,318.4 441.1,313.6 448.8,313.6C450.2,313.6 451.6,313.8 452.9,314.1L452.9,304.3L449.4,302.4L449.4,302.2L459.2,299.5L459.5,299.5L459.3,304.7ZM452.7,322.7C452.7,317.8 451.4,314.8 448.1,314.8C446.3,314.8 444.6,315.9 443.8,317.5C442.6,319.8 442,322.3 442.2,324.9C442.2,331.3 445.1,335.3 449.2,335.3C450.5,335.3 451.8,334.8 452.8,333.9L452.8,322.7L452.7,322.7ZM364.9,385.2L364.9,385L370,382L370,353.3L364.9,350.3L364.9,350.1L383.2,350.1C391.3,350.1 395,352.8 395,358.2C394.9,362.2 391.9,365.5 388,365.9C393.2,366.8 397.1,369.7 397.1,375C397.1,381.9 390.9,385.5 381.3,385.5C379,385.5 375.4,385.3 373.6,385.3L364.9,385.2ZM385.7,353.2C384,352 382,351.4 380,351.6C379,351.6 378,351.7 377,351.9L377,366L379.2,366C383.6,366 387.8,364.5 387.8,358.5C387.9,356.5 387.1,354.6 385.7,353.2ZM387.2,369.4C385.2,368 382.9,367.3 380.4,367.5C379.2,367.5 378.1,367.6 377,367.7L377,377C376.8,378.8 377.1,380.7 377.7,382.4C378.3,383.6 379.8,384 381.6,384C385.9,384.2 389.5,380.9 389.7,376.7L389.7,375.5C389.8,373.1 388.9,370.9 387.2,369.4ZM427.1,383L427.1,383.2L417.9,386L417.1,385.8L416.9,382.6L415.9,383.2C413.8,384.8 411.2,385.7 408.5,385.9C404.2,385.9 402.2,383.6 402.2,379.1L402.2,364.9L399,362L408.9,361.8L408.9,378.6C408.7,380.7 410.2,382.6 412.3,382.8L413,382.8C414.5,382.8 415.8,382.2 416.8,381.1L416.8,365L412.3,362.3L412.3,362.1L423.5,361.9L423.5,382.3L427.1,383ZM431.2,377.9C431.4,378.6 431.7,379.3 432,379.9C432.4,381 432.9,382.1 433.6,383.1C434.6,384 435.8,384.4 437.2,384.4C439.7,384.4 441.3,383.1 441.3,380.8C441.3,378.5 440.4,377.9 437.4,376.3L434.7,374.8C431.9,373.6 430.1,370.9 430.1,367.9C430.1,363.5 434.3,361 439.6,361C441.8,360.9 443.9,361.3 445.9,362.2L446.1,368.1L444.5,368.1C444.3,367.4 444.1,366.8 443.8,366.1C443.4,365 442.8,364.1 442.1,363.2C441.3,362.6 440.3,362.3 439.2,362.4C436.9,362.4 435.6,363.7 435.6,365.6C435.6,366.5 435.9,367.3 436.4,368C437.3,369 438.4,369.7 439.5,370.3L441.4,371.4C443,372.2 444.4,373.2 445.6,374.5C446.4,375.6 446.9,376.9 446.8,378.3C446.8,380.4 445.8,382.4 444.1,383.7C442,385.2 439.5,385.9 436.9,385.8C435.3,385.8 433.8,385.6 432.3,385.2C431.4,384.9 430.5,384.6 429.6,384.2L429.3,378.1L431.2,377.9ZM449.3,363.8L449.3,363.6L459.1,360.5L459.4,360.5L459.4,382.4L462.3,385.1L462.3,385.3L449.7,385.3L449.7,385.1L452.8,382.4L452.8,366L449.3,363.8ZM453.1,348.6C454.6,347.1 457,347 458.6,348.5C460.2,350 460.2,352.4 458.7,354C457.1,355.5 454.7,355.5 453.1,354C452.4,353.3 452,352.3 452.1,351.3C452,350.3 452.4,349.3 453.1,348.6ZM464.4,363.8L464.4,363.6L474,360.5L474.3,360.5L474.3,364.2L475.9,363.3C477.9,361.9 480.2,361.1 482.6,360.8C487.5,360.8 489.4,363.5 489.4,368.1L489.4,382.3L492.5,385L492.5,385.2L479.8,385.2L479.8,385L482.7,382.3L482.7,368.2C482.8,366.1 481.2,364.2 479.1,364L478.4,364C477.5,363.9 476.5,364.1 475.7,364.6C475.2,364.9 474.7,365.2 474.2,365.6L474.2,382.2L477.1,384.9L477.1,385.1L464.7,385.1L464.7,385L467.8,382.3L467.8,366L464.4,363.8ZM514.7,370.4L500.5,369.9C500.2,374.5 502,381.6 508.6,381.6C510,381.7 511.3,381.3 512.6,380.7C513.5,380.2 514.4,379.5 515.1,378.8L515.7,380.1C513.4,383.6 509.5,385.8 505.3,385.9C499.2,386.1 494.2,381.3 494,375.2L494,374.1C493.6,367.2 498.9,361.4 505.7,361L506.3,361C508.8,360.8 511.2,361.7 513,363.3C514.6,364.9 515.5,367.2 515.4,369.5L514.7,370.4ZM509.4,368.8C509.5,364.5 507.9,362.2 505.3,362.2C502.7,362.2 501,365.2 500.7,368.8L509.4,368.8ZM520.5,377.9C520.7,378.6 521,379.3 521.3,379.9C521.7,381 522.2,382.1 522.9,383.1C523.9,384 525.1,384.4 526.5,384.4C529,384.4 530.6,383.1 530.6,380.8C530.6,378.5 529.6,377.9 526.7,376.3L524,374.8C521.2,373.6 519.4,370.9 519.4,367.9C519.4,363.5 523.6,361 528.9,361C531.1,360.9 533.2,361.3 535.2,362.2L535.4,368.1L533.8,368.1C533.6,367.4 533.4,366.8 533.1,366.1C532.7,365 532.1,364.1 531.4,363.2C530.6,362.6 529.6,362.3 528.6,362.4C526.2,362.4 525,363.7 525,365.6C525,366.5 525.3,367.3 525.8,368C526.7,369 527.8,369.7 528.9,370.3L530.9,371.4C532.5,372.2 533.9,373.2 535.1,374.5C535.9,375.6 536.3,376.9 536.3,378.3C536.4,380.4 535.4,382.4 533.8,383.7C531.7,385.2 529.2,385.9 526.6,385.8C525.1,385.8 523.5,385.6 522,385.2C521.1,384.9 520.2,384.6 519.3,384.2L518.9,378L520.5,377.9ZM541.6,377.9C541.8,378.6 542.1,379.2 542.4,379.9C542.8,381 543.3,382.1 544,383.1C545,384 546.2,384.4 547.6,384.4C550.1,384.4 551.7,383.1 551.7,380.8C551.7,378.5 550.7,377.9 548,376.3L545.3,374.8C542.5,373.7 540.7,370.9 540.7,367.9C540.7,363.5 544.9,361 550.2,361C552.4,360.9 554.5,361.3 556.5,362.2L556.7,368.1L555,368.1C554.8,367.4 554.6,366.8 554.3,366.1C553.9,365 553.3,364.1 552.6,363.2C551.8,362.6 550.7,362.3 549.7,362.4C547.4,362.4 546.1,363.7 546.1,365.6C546.1,366.5 546.4,367.3 546.9,368C547.8,369 548.9,369.7 550,370.3L552,371.4C553.6,372.2 555,373.2 556.1,374.5C556.9,375.6 557.4,376.9 557.3,378.3C557.3,380.4 556.4,382.4 554.8,383.7C552.7,385.2 550.2,385.9 547.6,385.8C546,385.8 544.5,385.6 543,385.2C542.1,384.9 541.2,384.6 540.3,384.2L539.8,378.1L541.6,377.9ZM368.2,423.1L370,423.1C370.3,424.1 370.6,425 371,426C371.6,427.5 372.4,428.9 373.3,430.3C374.7,431.5 376.6,432.2 378.5,432.1C381.9,432.5 384.9,430.1 385.3,426.7L385.3,425.6C385.3,421.7 382.4,420 379.2,418.4L377.7,417.7C372.3,415 369.1,412.6 369.1,407.2C369.1,401 374.7,397.3 382.2,397.3C384,397.3 385.7,397.5 387.4,397.8L389.8,398.1L390.1,406.4L388.5,406.4C388.2,405.5 387.9,404.6 387.6,403.7C387.1,402.5 386.5,401.3 385.7,400.2C384.4,399.2 382.8,398.7 381.2,398.7C378.2,398.4 375.6,400.5 375.2,403.4L375.2,404.2C375.2,407.8 377,409.7 381.8,412.1L384.1,413.3C386.2,414.3 388.1,415.6 389.7,417.3C391.1,418.9 391.8,421 391.8,423.1C391.8,429.6 386.3,433.5 378.3,433.5C376.2,433.5 374.1,433.2 372.1,432.8L369.2,432.1L368.2,423.1ZM415.2,414C414.7,414.6 414.1,415 413.3,415.2L407.5,409.8C403.7,410.2 401.9,414.4 401.9,419C401.9,423.6 404.3,429.1 409.6,429.2C411.8,429.3 413.9,428.4 415.3,426.7L416,427.9C413.8,431.2 410,433.2 406,433.3C400.1,433.3 395.2,428.5 395.2,422.6L395.2,421.6C394.9,414.6 400.3,408.7 407.3,408.3L408.5,408.3C413.3,408.3 416.1,410.4 416.1,411.9C416.1,412.7 415.8,413.5 415.2,414ZM416.8,397.3L416.8,397L426.6,394.3L426.9,394.3L426.9,411.8L428.3,410.9C430.2,409.5 432.4,408.6 434.8,408.2C439.7,408.2 441.6,410.9 441.6,415.5L441.6,429.7L444.8,432.4L444.8,432.6L432.3,432.6L432.3,432.4L435.2,429.7L435.2,415.6C435.3,413.5 433.7,411.6 431.6,411.4L430.9,411.4C430,411.3 429,411.5 428.2,412C427.7,412.3 427.2,412.6 426.7,413L426.7,429.6L429.6,432.3L429.6,432.5L417.2,432.5L417.2,432.3L420.2,429.6L420.2,399L416.8,397.3ZM459.5,408.3C466,407.8 471.7,412.7 472.2,419.2L472.2,420.5C472.4,427.3 467.1,433 460.2,433.2L459.2,433.2C452.7,433.7 447,428.9 446.5,422.4C446.5,421.9 446.4,421.3 446.5,420.8C446.4,414 451.9,408.4 458.7,408.3L459.5,408.3ZM453.8,419.4C453.8,425.9 455.8,432 460.2,432C463.5,432 465,427.7 465,422.1C465,415.7 462.8,409.5 458.4,409.5C455.3,409.5 453.8,413.9 453.8,419.4ZM488.2,408.3C494.7,407.8 500.4,412.7 500.9,419.2L500.9,420.5C501.1,427.3 495.8,433 488.9,433.2L487.9,433.2C481.4,433.8 475.7,429 475.2,422.5C475.1,421.9 475.1,421.3 475.2,420.8C475.1,414 480.6,408.4 487.4,408.3L488.2,408.3ZM482.6,419.4C482.6,425.9 484.6,432 489,432C492.3,432 493.8,427.7 493.8,422.1C493.8,415.7 491.6,409.5 487.2,409.5C484,409.5 482.6,413.9 482.6,419.4ZM515.6,432.4L515.6,432.6L502.6,432.6L502.6,432.4L505.7,429.7L505.7,399.1L502.1,397.3L502.1,397L511.9,394.3L512.2,394.3L512.2,429.7L515.6,432.4Z" style="fill:rgb(0,33,71);fill-rule:nonzero;"/>
            </g>
        </g>
        <g transform="matrix(1,0,0,1,-4,0)">
            <g transform="matrix(0.694456,0,0,0.694456,4.15267,53.2239)">
                <rect x="35.525" y="35.568" width="326.715" height="326.875" style="fill:rgb(47,133,76);"/>
            </g>
            <g transform="matrix(0.694456,0,0,0.694456,4.15267,53.2239)">
                <rect x="397.752" y="35.568" width="326.715" height="326.875" style="fill:rgb(47,133,76);"/>
            </g>
            <g transform="matrix(0.694456,0,0,0.694456,4.15267,53.2239)">
                <path d="M233.115,294.498L233.115,224.877L271.689,224.877L271.689,298.326C271.689,303.537 272.88,307.248 275.267,309.459C277.665,311.674 280.869,312.779 284.872,312.779C288.884,312.779 292.114,311.674 294.56,309.459C297.005,307.248 298.244,303.537 298.244,298.326L298.244,224.877L336.635,224.877L336.635,294.498C336.635,302.807 335.385,309.865 332.881,315.686C330.385,321.506 326.869,326.233 322.369,329.897C317.857,333.561 312.4,336.217 306.002,337.866C299.6,339.538 292.553,340.366 284.873,340.366C277.307,340.366 270.346,339.538 264.002,337.866C257.662,336.218 252.201,333.561 247.643,329.897C243.073,326.233 239.506,321.506 236.955,315.686C234.389,309.865 233.115,302.807 233.115,294.498ZM164.986,311.947C164.986,312.717 165.365,313.107 166.15,313.107C166.697,313.107 166.982,312.716 166.982,311.947C167.982,304.631 169.263,296.635 170.822,287.935C172.388,279.24 173.931,270.763 175.498,262.505C177.057,254.263 178.56,246.751 180.002,240.005C181.451,233.235 182.564,228.208 183.35,224.876L219.416,224.876L219.416,337.376L197.713,337.376L197.713,242.661C197.713,242.102 197.315,241.829 196.541,241.829C196.1,241.829 195.873,242.102 195.873,242.661C194.986,247.083 194.033,252.044 193.037,257.532C192.025,263.012 190.807,269.434 189.353,276.802C187.908,284.173 186.158,292.786 184.103,302.638C182.044,312.505 179.619,324.076 176.837,337.376L154.286,337.376C151.509,324.302 149.141,313.001 147.192,303.47C145.235,293.95 143.54,285.591 142.094,278.38C140.653,271.185 139.367,264.759 138.254,259.107C137.149,253.459 136.031,247.974 134.914,242.662C134.914,242.103 134.523,241.83 133.742,241.83C133.304,241.83 133.078,242.103 133.078,242.662L133.078,337.377L113.211,337.377L113.211,224.877L149.441,224.877C150,227.311 150.675,230.463 151.449,234.35C152.219,238.237 153.094,242.573 154.031,247.397C154.984,252.202 155.949,257.366 156.961,262.835C157.957,268.335 158.961,273.921 159.965,279.632C160.969,285.335 161.883,290.933 162.723,296.421C163.557,301.896 164.311,307.076 164.986,311.947ZM58.775,224.877L69.795,224.877L69.795,329.068L101.854,329.068L101.854,337.377L58.775,337.377L58.775,224.877Z" style="fill:white;fill-rule:nonzero;"/>
            </g>
            <g transform="matrix(0.694456,0,0,0.694456,4.15267,53.2239)">
                <path d="M421.791,205.6L421.791,181.709L426.244,181.709L426.244,202.057L438.119,202.057L438.119,205.6L421.791,205.6Z" style="fill:white;fill-rule:nonzero;"/>
            </g>
            <g transform="matrix(0.694456,0,0,0.694456,4.15267,53.2239)">
                <path d="M454.377,206.088C449.236,206.088 444.389,204.24 444.389,196.045L444.389,181.709L448.858,181.709L448.858,196.455C448.858,200.244 450.674,202.803 454.378,202.803C458.019,202.803 459.796,200.412 459.796,196.455L459.796,181.709L464.261,181.709L464.261,196.045C464.26,203.658 459.314,206.088 454.377,206.088Z" style="fill:white;fill-rule:nonzero;"/>
            </g>
            <g transform="matrix(0.694456,0,0,0.694456,4.15267,53.2239)">
                <path d="M480.354,185.088L477.819,185.088L477.819,202.19L480.354,202.19C485.432,202.19 488.209,199.94 488.209,193.487C488.209,187.889 485.525,185.088 480.354,185.088ZM480.557,205.6L473.354,205.6L473.354,181.709L480.557,181.709C489.065,181.709 492.869,186.623 492.869,193.486C492.869,201.338 488.275,205.6 480.557,205.6Z" style="fill:white;fill-rule:nonzero;"/>
            </g>
            <g transform="matrix(0.694456,0,0,0.694456,4.15267,53.2239)">
                <path d="M523.779,205.6L519.037,205.6L514.408,188.838L509.779,205.6L505.045,205.6L497.775,181.709L502.744,181.709L507.619,200.412L512.217,183.654L516.943,183.654L521.518,200.412L526.354,181.709L531.021,181.709L523.779,205.6Z" style="fill:white;fill-rule:nonzero;"/>
            </g>
            <g transform="matrix(0.694456,0,0,0.694456,4.15267,53.2239)">
                <rect x="537.775" y="181.709" width="4.461" height="23.891" style="fill:white;"/>
            </g>
            <g transform="matrix(0.694456,0,0,0.694456,4.15267,53.2239)">
                <path d="M562.135,206.088C554.862,206.088 550.51,201.096 550.51,193.451C550.51,185.185 556.576,181.228 562.135,181.228C566.049,181.228 568.584,182.458 570.201,183.892L568.377,187.236C567.076,185.767 565.299,184.435 562.135,184.435C558.119,184.435 555.135,188.025 555.135,193.451C555.135,199.013 558.119,202.873 562.338,202.873C564.776,202.873 566.186,202.256 566.764,201.717L566.764,195.635L561.412,195.635L561.412,192.358L571.06,192.358L571.06,203.831C568.994,205.092 566.217,206.088 562.135,206.088Z" style="fill:white;fill-rule:nonzero;"/>
            </g>
            <g transform="matrix(0.694456,0,0,0.694456,4.15267,53.2239)">
                <rect x="577.197" y="193.416" width="9.367" height="2.973" style="fill:white;"/>
            </g>
            <g transform="matrix(0.694456,0,0,0.694456,4.15267,53.2239)">
                <path d="M443.443,249.506L442.623,231.342L436.541,246.225L432.49,246.225L426.283,231.342L425.561,249.506L421.205,249.506L422.611,225.6L428.174,225.6L434.721,241.439L440.939,225.6L446.494,225.6L447.896,249.506L443.443,249.506Z" style="fill:white;fill-rule:nonzero;"/>
            </g>
            <g transform="matrix(0.694456,0,0,0.694456,4.15267,53.2239)">
                <path d="M465.463,230.045L461.725,240.49L469.272,240.49L465.463,230.045ZM472.529,249.506L470.435,243.694L460.63,243.694L458.505,249.506L453.798,249.506L463.337,225.6L468.009,225.6L477.474,249.506L472.529,249.506Z" style="fill:white;fill-rule:nonzero;"/>
            </g>
            <g transform="matrix(0.694456,0,0,0.694456,4.15267,53.2239)">
                <path d="M499.393,249.506L492.908,239.865L486.295,249.506L480.939,249.506L490.135,237.115L481.658,225.6L487.252,225.6L493.154,234.475L498.916,225.6L504.271,225.6L495.826,237.115L504.986,249.506L499.393,249.506Z" style="fill:white;fill-rule:nonzero;"/>
            </g>
            <g transform="matrix(0.694456,0,0,0.694456,4.15267,53.2239)">
                <rect x="511.541" y="225.6" width="4.465" height="23.906" style="fill:white;"/>
            </g>
            <g transform="matrix(0.694456,0,0,0.694456,4.15267,53.2239)">
                <path d="M547.229,249.506L546.396,231.342L540.326,246.225L536.275,246.225L530.068,231.342L529.346,249.506L524.99,249.506L526.4,225.6L531.959,225.6L538.506,241.439L544.721,225.6L550.283,225.6L551.682,249.506L547.229,249.506Z" style="fill:white;fill-rule:nonzero;"/>
            </g>
            <g transform="matrix(0.694456,0,0,0.694456,4.15267,53.2239)">
                <rect x="560.674" y="225.6" width="4.453" height="23.906" style="fill:white;"/>
            </g>
            <g transform="matrix(0.694456,0,0,0.694456,4.15267,53.2239)">
                <path d="M591.033,249.506L591.033,245.951L579.166,245.951L579.166,225.6L574.701,225.6L574.701,249.506L591.033,249.506Z" style="fill:white;fill-rule:nonzero;"/>
            </g>
            <g transform="matrix(0.694456,0,0,0.694456,4.15267,53.2239)">
                <rect x="598.623" y="225.6" width="4.453" height="23.906" style="fill:white;"/>
            </g>
            <g transform="matrix(0.694456,0,0,0.694456,4.15267,53.2239)">
                <path d="M621.369,230.045L617.627,240.49L625.174,240.49L621.369,230.045ZM628.432,249.506L626.338,243.694L616.526,243.694L614.401,249.506L609.702,249.506L619.233,225.6L623.901,225.6L633.378,249.506L628.432,249.506Z" style="fill:white;fill-rule:nonzero;"/>
            </g>
            <g transform="matrix(0.694456,0,0,0.694456,4.15267,53.2239)">
                <path d="M654.264,249.506L644.252,231.686L644.252,249.506L639.854,249.506L639.854,225.6L645.689,225.6L655.713,243.42L655.713,225.6L660.096,225.6L660.096,249.506L654.264,249.506Z" style="fill:white;fill-rule:nonzero;"/>
            </g>
            <g transform="matrix(0.694456,0,0,0.694456,4.15267,53.2239)">
                <path d="M685.521,242.873C685.521,239.264 683.33,237.553 680.619,236.389L675.885,234.381C674.405,233.764 672.862,232.943 672.862,231.233C672.862,229.866 674.065,228.335 676.706,228.335C679.694,228.335 681.374,229.663 682.745,231.343L684.636,228.374C682.909,226.323 679.898,225.124 676.706,225.124C672.862,225.124 668.296,227.378 668.296,231.987C668.296,234.928 670.284,236.87 672.862,237.964L677.596,239.976C679.448,240.765 680.854,241.648 680.854,243.531C680.854,245.062 679.448,246.773 676.432,246.773C673.377,246.773 671.393,245.406 669.666,243.461L667.787,246.461C668.916,247.797 671.627,249.977 676.361,249.977C683.564,249.975 685.521,245.334 685.521,242.873Z" style="fill:white;fill-rule:nonzero;"/>
            </g>
            <g transform="matrix(0.694456,0,0,0.694456,4.15267,53.2239)">
                <rect x="691.252" y="237.311" width="9.363" height="2.977" style="fill:white;"/>
            </g>
            <g transform="matrix(0.694456,0,0,0.694456,4.15267,53.2239)">
                <path d="M431.436,293.881C426.284,293.881 421.452,292.026 421.452,283.842L421.452,269.498L425.905,269.498L425.905,284.24C425.905,288.029 427.725,290.599 431.436,290.599C435.065,290.599 436.854,288.208 436.854,284.24L436.854,269.498L441.307,269.498L441.307,283.842C441.307,291.451 436.377,293.881 431.436,293.881Z" style="fill:white;fill-rule:nonzero;"/>
            </g>
            <g transform="matrix(0.694456,0,0,0.694456,4.15267,53.2239)">
                <path d="M464.818,293.393L454.795,275.568L454.795,293.393L450.4,293.393L450.4,269.498L456.236,269.498L466.256,287.318L466.256,269.498L470.639,269.498L470.639,293.393L464.818,293.393Z" style="fill:white;fill-rule:nonzero;"/>
            </g>
            <g transform="matrix(0.694456,0,0,0.694456,4.15267,53.2239)">
                <rect x="480.213" y="269.498" width="4.465" height="23.895" style="fill:white;"/>
            </g>
            <g transform="matrix(0.694456,0,0,0.694456,4.15267,53.2239)">
                <path d="M504.877,293.393L500.15,293.393L490.604,269.498L495.65,269.498L502.619,288.889L509.584,269.498L514.42,269.498L504.877,293.393Z" style="fill:white;fill-rule:nonzero;"/>
            </g>
            <g transform="matrix(0.694456,0,0,0.694456,4.15267,53.2239)">
                <path d="M521.033,293.393L521.033,269.498L537.127,269.498L537.127,272.982L525.498,272.982L525.498,279.264L536.205,279.264L536.205,282.678L525.498,282.678L525.498,289.85L537.58,289.85L537.58,293.393L521.033,293.393Z" style="fill:white;fill-rule:nonzero;"/>
            </g>
            <g transform="matrix(0.694456,0,0,0.694456,4.15267,53.2239)">
                <path d="M553.529,272.873L549.681,272.873L549.681,279.811L553.529,279.811C556.967,279.811 557.818,278.139 557.818,276.155C557.818,274.35 556.408,272.873 553.529,272.873ZM559.053,293.393L554.221,286.194C552.983,284.35 551.916,283.081 550.791,283.081L549.682,283.081L549.682,293.393L545.229,293.393L545.229,269.498L554.389,269.498C558.608,269.498 562.416,271.713 562.416,276.154C562.416,280.658 558.365,282.338 556.307,282.572C556.998,283.013 557.885,284.174 558.198,284.623L564.378,293.393L559.053,293.393Z" style="fill:white;fill-rule:nonzero;"/>
            </g>
            <g transform="matrix(0.694456,0,0,0.694456,4.15267,53.2239)">
                <path d="M577.686,293.881C572.948,293.881 570.241,291.686 569.104,290.365L570.991,287.357C572.714,289.302 574.702,290.669 577.753,290.669C580.773,290.669 582.179,288.958 582.179,287.427C582.179,285.54 580.773,284.654 578.921,283.872L574.187,281.856C571.609,280.762 569.621,278.821 569.621,275.879C569.621,271.27 574.187,269.016 578.027,269.016C581.222,269.016 584.234,270.207 585.957,272.258L584.07,275.227C582.699,273.559 581.019,272.231 578.027,272.231C575.386,272.231 574.187,273.762 574.187,275.129C574.187,276.84 575.73,277.66 577.207,278.274L581.934,280.286C584.645,281.45 586.848,283.157 586.848,286.77C586.846,289.232 584.889,293.881 577.686,293.881Z" style="fill:white;fill-rule:nonzero;"/>
            </g>
            <g transform="matrix(0.694456,0,0,0.694456,4.15267,53.2239)">
                <rect x="594.873" y="269.498" width="4.465" height="23.895" style="fill:white;"/>
            </g>
            <g transform="matrix(0.694456,0,0,0.694456,4.15267,53.2239)">
                <path d="M618.51,273.053L618.51,293.393L614.057,293.393L614.057,273.053L605.99,273.053L605.99,269.498L626.572,269.498L626.572,273.053L618.51,273.053Z" style="fill:white;fill-rule:nonzero;"/>
            </g>
            <g transform="matrix(0.694456,0,0,0.694456,4.15267,53.2239)">
                <path d="M645.17,267.318C643.897,267.318 642.842,266.224 642.842,265.021C642.842,263.833 643.869,262.74 645.17,262.74C646.471,262.74 647.502,263.834 647.502,265.021C647.502,266.225 646.447,267.318 645.17,267.318ZM641.803,273.939L638.065,284.38L645.612,284.38L641.803,273.939ZM638.545,267.318C637.279,267.318 636.217,266.224 636.217,265.021C636.217,263.833 637.24,262.74 638.545,262.74C639.854,262.74 640.885,263.834 640.885,265.021C640.885,266.225 639.814,267.318 638.545,267.318ZM648.881,293.393L646.787,287.592L636.967,287.592L634.846,293.393L630.147,293.393L639.678,269.498L644.35,269.498L653.815,293.393L648.881,293.393Z" style="fill:white;fill-rule:nonzero;"/>
            </g>
            <g transform="matrix(0.694456,0,0,0.694456,4.15267,53.2239)">
                <path d="M669.9,273.053L669.9,293.393L665.447,293.393L665.447,273.053L657.389,273.053L657.389,269.498L677.971,269.498L677.971,273.053L669.9,273.053Z" style="fill:white;fill-rule:nonzero;"/>
            </g>
            <g transform="matrix(0.694456,0,0,0.694456,4.15267,53.2239)">
                <path d="M443.443,337.287L442.623,319.135L436.541,334.018L432.49,334.018L426.283,319.135L425.561,337.287L421.205,337.287L422.611,313.393L428.174,313.393L434.721,329.232L440.939,313.393L446.494,313.393L447.896,337.287L443.443,337.287Z" style="fill:white;fill-rule:nonzero;"/>
            </g>
            <g transform="matrix(0.694456,0,0,0.694456,4.15267,53.2239)">
                <path d="M469.381,311.205C468.104,311.205 467.041,310.111 467.041,308.92C467.041,307.729 468.076,306.635 469.381,306.635C470.678,306.635 471.748,307.729 471.748,308.92C471.748,310.111 470.639,311.205 469.381,311.205ZM462.752,311.205C461.49,311.205 460.424,310.111 460.424,308.92C460.424,307.729 461.451,306.635 462.752,306.635C464.053,306.635 465.123,307.729 465.123,308.92C465.123,310.111 464.025,311.205 462.752,311.205ZM466.396,337.768C461.244,337.768 456.412,335.932 456.412,327.729L456.412,313.393L460.865,313.393L460.865,328.147C460.865,331.936 462.685,334.499 466.396,334.499C470.025,334.499 471.814,332.104 471.814,328.147L471.814,313.393L476.267,313.393L476.267,327.729C476.268,335.346 471.338,337.768 466.396,337.768Z" style="fill:white;fill-rule:nonzero;"/>
            </g>
            <g transform="matrix(0.694456,0,0,0.694456,4.15267,53.2239)">
                <path d="M499.779,337.287L489.756,319.475L489.756,337.287L485.361,337.287L485.361,313.393L491.197,313.393L501.217,331.217L501.217,313.393L505.6,313.393L505.6,337.287L499.779,337.287Z" style="fill:white;fill-rule:nonzero;"/>
            </g>
            <g transform="matrix(0.694456,0,0,0.694456,4.15267,53.2239)">
                <path d="M525.127,337.768C517.377,337.768 513.736,331.764 513.736,325.17C513.736,318.717 518.158,312.912 525.127,312.912C528.565,312.912 531.236,314.045 533.057,315.951L531.303,319.271C529.963,317.767 528.635,316.193 525.198,316.193C521.143,316.193 518.405,320.123 518.405,325.17C518.405,330.123 521.354,334.498 525.237,334.498C528.089,334.498 529.964,333.537 531.987,331.381L533.702,334.799C530.924,336.92 528.908,337.768 525.127,337.768Z" style="fill:white;fill-rule:nonzero;"/>
            </g>
            <g transform="matrix(0.694456,0,0,0.694456,4.15267,53.2239)">
                <path d="M555.83,337.287L555.83,326.467L545.131,326.467L545.131,337.287L540.67,337.287L540.67,313.393L545.131,313.393L545.131,323.197L555.83,323.197L555.83,313.393L560.291,313.393L560.291,337.287L555.83,337.287Z" style="fill:white;fill-rule:nonzero;"/>
            </g>
            <g transform="matrix(0.694456,0,0,0.694456,4.15267,53.2239)">
                <path d="M569.732,337.287L569.732,313.393L585.822,313.393L585.822,316.881L574.193,316.881L574.193,323.158L584.896,323.158L584.896,326.576L574.193,326.576L574.193,333.744L586.268,333.744L586.268,337.287L569.732,337.287Z" style="fill:white;fill-rule:nonzero;"/>
            </g>
            <g transform="matrix(0.694456,0,0,0.694456,4.15267,53.2239)">
                <path d="M608.33,337.287L598.311,319.475L598.311,337.287L593.916,337.287L593.916,313.393L599.744,313.393L609.771,331.217L609.771,313.393L614.166,313.393L614.166,337.287L608.33,337.287Z" style="fill:white;fill-rule:nonzero;"/>
            </g>
        </g>
    </g>
</svg>
